<?xml version="1.0" encoding="utf-8" standalone="no"?>
<!DOCTYPE svg PUBLIC "-//W3C//DTD SVG 1.1//EN"
  "http://www.w3.org/Graphics/SVG/1.1/DTD/svg11.dtd">
<svg xmlns:xlink="http://www.w3.org/1999/xlink" width="97.173792pt" height="141.59952pt" viewBox="0 0 97.173792 141.59952" xmlns="http://www.w3.org/2000/svg" version="1.1">
 <metadata>
  <rdf:RDF xmlns:dc="http://purl.org/dc/elements/1.1/" xmlns:cc="http://creativecommons.org/ns#" xmlns:rdf="http://www.w3.org/1999/02/22-rdf-syntax-ns#">
   <cc:Work>
    <dc:type rdf:resource="http://purl.org/dc/dcmitype/StillImage"/>
    <dc:date>2025-06-25T09:54:02.370986</dc:date>
    <dc:format>image/svg+xml</dc:format>
    <dc:creator>
     <cc:Agent>
      <dc:title>Matplotlib v3.7.0, https://matplotlib.org/</dc:title>
     </cc:Agent>
    </dc:creator>
   </cc:Work>
  </rdf:RDF>
 </metadata>
 <defs>
  <style type="text/css">*{stroke-linejoin: round; stroke-linecap: butt}</style>
 </defs>
 <g id="figure_1">
  <g id="patch_1">
   <path d="M 0 141.59952 
L 97.173792 141.59952 
L 97.173792 0 
L 0 0 
z
" style="fill: #ffffff"/>
  </g>
  <g id="axes_1">
   <g id="patch_2">
    <path d="M 24.627188 111.835583 
L 84.438833 111.835583 
L 84.438833 17.58425 
L 24.627188 17.58425 
z
" style="fill: #ffffff"/>
   </g>
   <g id="line2d_1"/>
   <g id="line2d_2">
    <path d="M 27.345899 90.205011 
L 27.345899 76.576198 
" clip-path="url(#pecc7295623)" style="fill: none; stroke: #000000; stroke-width: 1.25; stroke-linecap: square"/>
   </g>
   <g id="line2d_3">
    <path d="M 66.18463 80.074502 
L 66.18463 58.957376 
" clip-path="url(#pecc7295623)" style="fill: none; stroke: #000000; stroke-width: 1.25; stroke-linecap: square"/>
   </g>
   <g id="PathCollection_1">
    <defs>
     <path id="m57e62400c8" d="M 0 1.917571 
C 0.508546 1.917571 0.996331 1.715523 1.355927 1.355927 
C 1.715523 0.996331 1.917571 0.508546 1.917571 0 
C 1.917571 -0.508546 1.715523 -0.996331 1.355927 -1.355927 
C 0.996331 -1.715523 0.508546 -1.917571 0 -1.917571 
C -0.508546 -1.917571 -0.996331 -1.715523 -1.355927 -1.355927 
C -1.715523 -0.996331 -1.917571 -0.508546 -1.917571 0 
C -1.917571 0.508546 -1.715523 0.996331 -1.355927 1.355927 
C -0.996331 1.715523 -0.508546 1.917571 0 1.917571 
z
" style="stroke: #000000; stroke-width: 0.6"/>
    </defs>
    <g clip-path="url(#pecc7295623)">
     <use xlink:href="#m57e62400c8" x="27.345899" y="83.764179" style="stroke: #000000; stroke-width: 0.6"/>
     <use xlink:href="#m57e62400c8" x="66.18463" y="69.940024" style="stroke: #000000; stroke-width: 0.6"/>
    </g>
   </g>
   <g id="matplotlib.axis_1">
    <g id="xtick_1">
     <g id="line2d_4">
      <defs>
       <path id="m151e712837" d="M 0 0 
L 0 3 
" style="stroke: #000000; stroke-width: 0.5"/>
      </defs>
      <g>
       <use xlink:href="#m151e712837" x="35.113645" y="111.835583" style="stroke: #000000; stroke-width: 0.5"/>
      </g>
     </g>
     <g id="text_1">
      <g id="patch_3">
       <path d="M 23.590832 131.259208 
L 46.636457 131.259208 
L 46.636457 117.24527 
L 23.590832 117.24527 
z
" style="fill: #75bbfd; opacity: 0.4"/>
      </g>
      <text style="font: 6px 'Arial', 'Helvetica', sans-serif" transform="translate(24.610832 122.63027)">Early IA</text>
      <text style="font: 6px 'Arial', 'Helvetica', sans-serif" transform="translate(27.614114 129.046708)"> Error</text>
     </g>
    </g>
    <g id="xtick_2">
     <g id="line2d_5">
      <g>
       <use xlink:href="#m151e712837" x="73.952376" y="111.835583" style="stroke: #000000; stroke-width: 0.5"/>
      </g>
     </g>
     <g id="text_2">
      <g id="patch_4">
       <path d="M 61.096438 131.332333 
L 86.808313 131.332333 
L 86.808313 117.24527 
L 61.096438 117.24527 
z
" style="fill: #02ab2e; opacity: 0.4"/>
      </g>
      <text style="font: 6px 'Arial', 'Helvetica', sans-serif" transform="translate(62.116438 122.703395)">Early RS</text>
      <text style="font: 6px 'Arial', 'Helvetica', sans-serif" transform="translate(66.452845 129.119833)"> Error</text>
     </g>
    </g>
    <g id="text_3">
     <text style="font: 6px 'Arial', 'Helvetica', sans-serif; text-anchor: middle" x="54.53301" y="138.60702" transform="rotate(-0 54.53301 138.60702)">Cell Ensemble</text>
    </g>
   </g>
   <g id="matplotlib.axis_2">
    <g id="ytick_1">
     <g id="line2d_6">
      <defs>
       <path id="m390845aac3" d="M 0 0 
L -3 0 
" style="stroke: #000000; stroke-width: 0.5"/>
      </defs>
      <g>
       <use xlink:href="#m390845aac3" x="24.627188" y="111.835583" style="stroke: #000000; stroke-width: 0.5"/>
      </g>
     </g>
     <g id="text_4">
      <text style="font: 6px 'Arial', 'Helvetica', sans-serif; text-anchor: end" x="19.627188" y="113.982926" transform="rotate(-0 19.627188 113.982926)">0.0</text>
     </g>
    </g>
    <g id="ytick_2">
     <g id="line2d_7">
      <g>
       <use xlink:href="#m390845aac3" x="24.627188" y="91.782108" style="stroke: #000000; stroke-width: 0.5"/>
      </g>
     </g>
     <g id="text_5">
      <text style="font: 6px 'Arial', 'Helvetica', sans-serif; text-anchor: end" x="19.627188" y="93.929451" transform="rotate(-0 19.627188 93.929451)">0.5</text>
     </g>
    </g>
    <g id="ytick_3">
     <g id="line2d_8">
      <g>
       <use xlink:href="#m390845aac3" x="24.627188" y="71.728633" style="stroke: #000000; stroke-width: 0.5"/>
      </g>
     </g>
     <g id="text_6">
      <text style="font: 6px 'Arial', 'Helvetica', sans-serif; text-anchor: end" x="19.627188" y="73.875976" transform="rotate(-0 19.627188 73.875976)">1.0</text>
     </g>
    </g>
    <g id="ytick_4">
     <g id="line2d_9">
      <g>
       <use xlink:href="#m390845aac3" x="24.627188" y="51.675157" style="stroke: #000000; stroke-width: 0.5"/>
      </g>
     </g>
     <g id="text_7">
      <text style="font: 6px 'Arial', 'Helvetica', sans-serif; text-anchor: end" x="19.627188" y="53.822501" transform="rotate(-0 19.627188 53.822501)">1.5</text>
     </g>
    </g>
    <g id="ytick_5">
     <g id="line2d_10">
      <g>
       <use xlink:href="#m390845aac3" x="24.627188" y="31.621682" style="stroke: #000000; stroke-width: 0.5"/>
      </g>
     </g>
     <g id="text_8">
      <text style="font: 6px 'Arial', 'Helvetica', sans-serif; text-anchor: end" x="19.627188" y="33.769026" transform="rotate(-0 19.627188 33.769026)">2.0</text>
     </g>
    </g>
    <g id="text_9">
     <text style="font: 6px 'Arial', 'Helvetica', sans-serif; text-anchor: middle" x="6.094688" y="64.709916" transform="rotate(-90 6.094688 64.709916)">Davies-Bouldin Index</text>
    </g>
   </g>
   <g id="line2d_11"/>
   <g id="line2d_12">
    <path d="M 32.524396 84.967392 
L 32.524396 70.218468 
" clip-path="url(#pecc7295623)" style="fill: none; stroke: #ff0000; stroke-width: 1.25; stroke-linecap: square"/>
   </g>
   <g id="line2d_13">
    <path d="M 71.363127 61.439157 
L 71.363127 31.178065 
" clip-path="url(#pecc7295623)" style="fill: none; stroke: #ff0000; stroke-width: 1.25; stroke-linecap: square"/>
   </g>
   <g id="PathCollection_2">
    <defs>
     <path id="me6b7a1899f" d="M 0 1.917571 
C 0.508546 1.917571 0.996331 1.715523 1.355927 1.355927 
C 1.715523 0.996331 1.917571 0.508546 1.917571 0 
C 1.917571 -0.508546 1.715523 -0.996331 1.355927 -1.355927 
C 0.996331 -1.715523 0.508546 -1.917571 0 -1.917571 
C -0.508546 -1.917571 -0.996331 -1.715523 -1.355927 -1.355927 
C -1.715523 -0.996331 -1.917571 -0.508546 -1.917571 0 
C -1.917571 0.508546 -1.715523 0.996331 -1.355927 1.355927 
C -0.996331 1.715523 -0.508546 1.917571 0 1.917571 
z
" style="stroke: #000000; stroke-width: 0.6"/>
    </defs>
    <g clip-path="url(#pecc7295623)">
     <use xlink:href="#me6b7a1899f" x="32.524396" y="77.891396" style="fill: #ff0000; stroke: #000000; stroke-width: 0.6"/>
     <use xlink:href="#me6b7a1899f" x="71.363127" y="46.334021" style="fill: #ff0000; stroke: #000000; stroke-width: 0.6"/>
    </g>
   </g>
   <g id="line2d_14">
    <path d="M 32.524396 68.333441 
L 32.524396 68.333441 
L 42.881391 68.333441 
L 42.881391 68.333441 
" style="fill: none; stroke: #000000; stroke-width: 0.75; stroke-linecap: square"/>
   </g>
   <g id="line2d_15">
    <path d="M 66.18463 29.293038 
L 66.18463 29.293038 
L 71.363127 29.293038 
L 71.363127 29.293038 
" style="fill: none; stroke: #000000; stroke-width: 0.75; stroke-linecap: square"/>
   </g>
   <g id="line2d_16">
    <path d="M 71.363127 23.745907 
L 71.363127 23.745907 
L 76.541625 23.745907 
L 76.541625 23.745907 
" style="fill: none; stroke: #000000; stroke-width: 0.75; stroke-linecap: square"/>
   </g>
   <g id="patch_5">
    <path d="M 24.627188 111.835583 
L 24.627188 17.58425 
" style="fill: none; stroke: #000000; stroke-width: 0.5; stroke-linejoin: miter; stroke-linecap: square"/>
   </g>
   <g id="patch_6">
    <path d="M 24.627188 111.835583 
L 84.438833 111.835583 
" style="fill: none; stroke: #000000; stroke-width: 0.5; stroke-linejoin: miter; stroke-linecap: square"/>
   </g>
   <g id="line2d_17"/>
   <g id="line2d_18">
    <path d="M 37.702894 87.382455 
L 37.702894 72.087385 
" clip-path="url(#pecc7295623)" style="fill: none; stroke: #1e90ff; stroke-width: 1.25; stroke-linecap: square"/>
   </g>
   <g id="line2d_19">
    <path d="M 76.541625 75.003412 
L 76.541625 54.397961 
" clip-path="url(#pecc7295623)" style="fill: none; stroke: #1e90ff; stroke-width: 1.25; stroke-linecap: square"/>
   </g>
   <g id="PathCollection_3">
    <defs>
     <path id="m1714ffab6f" d="M 0 1.917571 
C 0.508546 1.917571 0.996331 1.715523 1.355927 1.355927 
C 1.715523 0.996331 1.917571 0.508546 1.917571 0 
C 1.917571 -0.508546 1.715523 -0.996331 1.355927 -1.355927 
C 0.996331 -1.715523 0.508546 -1.917571 0 -1.917571 
C -0.508546 -1.917571 -0.996331 -1.715523 -1.355927 -1.355927 
C -1.715523 -0.996331 -1.917571 -0.508546 -1.917571 0 
C -1.917571 0.508546 -1.715523 0.996331 -1.355927 1.355927 
C -0.996331 1.715523 -0.508546 1.917571 0 1.917571 
z
" style="stroke: #000000; stroke-width: 0.6"/>
    </defs>
    <g clip-path="url(#pecc7295623)">
     <use xlink:href="#m1714ffab6f" x="37.702894" y="80.062669" style="fill: #1e90ff; stroke: #000000; stroke-width: 0.6"/>
     <use xlink:href="#m1714ffab6f" x="76.541625" y="64.814906" style="fill: #1e90ff; stroke: #000000; stroke-width: 0.6"/>
    </g>
   </g>
   <g id="text_10">
    <g id="patch_7">
     <path d="M 34.189144 72.244053 
L 41.216644 72.244053 
L 41.216644 64.127803 
L 34.189144 64.127803 
L 34.189144 72.244053 
z
" style="fill: none"/>
    </g>
    <text style="font: 8px 'Arial', 'Helvetica', sans-serif; text-anchor: middle" x="37.702894" y="70.254053" transform="rotate(-0 37.702894 70.254053)">**</text>
   </g>
   <g id="text_11">
    <g id="patch_8">
     <path d="M 65.260128 33.20365 
L 72.287628 33.20365 
L 72.287628 25.0874 
L 65.260128 25.0874 
L 65.260128 33.20365 
z
" style="fill: none"/>
    </g>
    <text style="font: 8px 'Arial', 'Helvetica', sans-serif; text-anchor: middle" x="68.773878" y="31.21365" transform="rotate(-0 68.773878 31.21365)">**</text>
   </g>
   <g id="text_12">
    <g id="patch_9">
     <path d="M 70.438626 27.656518 
L 77.466126 27.656518 
L 77.466126 19.540268 
L 70.438626 19.540268 
L 70.438626 27.656518 
z
" style="fill: none"/>
    </g>
    <text style="font: 8px 'Arial', 'Helvetica', sans-serif; text-anchor: middle" x="73.952376" y="25.666518" transform="rotate(-0 73.952376 25.666518)">**</text>
   </g>
   <g id="text_13">
    <text style="font: 6px 'Arial', 'Helvetica', sans-serif" transform="translate(13.692229 6.167812)">Early IA Error &amp; Early RS Error</text>
    <text style="font: 6px 'Arial', 'Helvetica', sans-serif" transform="translate(21.517542 12.58425)"> stage activity separation</text>
   </g>
   <g id="line2d_20"/>
   <g id="line2d_21">
    <path d="M 42.881391 94.937997 
L 42.881391 82.774824 
" clip-path="url(#pecc7295623)" style="fill: none; stroke: #32cd32; stroke-width: 1.25; stroke-linecap: square"/>
   </g>
   <g id="line2d_22">
    <path d="M 81.720122 68.476931 
L 81.720122 45.280186 
" clip-path="url(#pecc7295623)" style="fill: none; stroke: #32cd32; stroke-width: 1.25; stroke-linecap: square"/>
   </g>
   <g id="PathCollection_4">
    <defs>
     <path id="mb8ef736296" d="M 0 1.917571 
C 0.508546 1.917571 0.996331 1.715523 1.355927 1.355927 
C 1.715523 0.996331 1.917571 0.508546 1.917571 0 
C 1.917571 -0.508546 1.715523 -0.996331 1.355927 -1.355927 
C 0.996331 -1.715523 0.508546 -1.917571 0 -1.917571 
C -0.508546 -1.917571 -0.996331 -1.715523 -1.355927 -1.355927 
C -1.715523 -0.996331 -1.917571 -0.508546 -1.917571 0 
C -1.917571 0.508546 -1.715523 0.996331 -1.355927 1.355927 
C -0.996331 1.715523 -0.508546 1.917571 0 1.917571 
z
" style="stroke: #000000; stroke-width: 0.6"/>
    </defs>
    <g clip-path="url(#pecc7295623)">
     <use xlink:href="#mb8ef736296" x="42.881391" y="89.021907" style="fill: #32cd32; stroke: #000000; stroke-width: 0.6"/>
     <use xlink:href="#mb8ef736296" x="81.720122" y="57.415068" style="fill: #32cd32; stroke: #000000; stroke-width: 0.6"/>
    </g>
   </g>
  </g>
 </g>
 <defs>
  <clipPath id="pecc7295623">
   <rect x="24.627188" y="17.58425" width="59.811646" height="94.251333"/>
  </clipPath>
 </defs>
</svg>
