<?xml version="1.0" encoding="utf-8" standalone="no"?>
<!DOCTYPE svg PUBLIC "-//W3C//DTD SVG 1.1//EN"
  "http://www.w3.org/Graphics/SVG/1.1/DTD/svg11.dtd">
<svg xmlns:xlink="http://www.w3.org/1999/xlink" width="92.526322pt" height="141.59952pt" viewBox="0 0 92.526322 141.59952" xmlns="http://www.w3.org/2000/svg" version="1.1">
 <metadata>
  <rdf:RDF xmlns:dc="http://purl.org/dc/elements/1.1/" xmlns:cc="http://creativecommons.org/ns#" xmlns:rdf="http://www.w3.org/1999/02/22-rdf-syntax-ns#">
   <cc:Work>
    <dc:type rdf:resource="http://purl.org/dc/dcmitype/StillImage"/>
    <dc:date>2025-06-25T09:56:01.598453</dc:date>
    <dc:format>image/svg+xml</dc:format>
    <dc:creator>
     <cc:Agent>
      <dc:title>Matplotlib v3.7.0, https://matplotlib.org/</dc:title>
     </cc:Agent>
    </dc:creator>
   </cc:Work>
  </rdf:RDF>
 </metadata>
 <defs>
  <style type="text/css">*{stroke-linejoin: round; stroke-linecap: butt}</style>
 </defs>
 <g id="figure_1">
  <g id="patch_1">
   <path d="M 0 141.59952 
L 92.526322 141.59952 
L 92.526322 0 
L 0 0 
z
" style="fill: #ffffff"/>
  </g>
  <g id="axes_1">
   <g id="patch_2">
    <path d="M 24.627188 111.835582 
L 85.79952 111.835582 
L 85.79952 17.58425 
L 24.627188 17.58425 
z
" style="fill: #ffffff"/>
   </g>
   <g id="line2d_1"/>
   <g id="line2d_2">
    <path d="M 33.803037 76.104254 
L 33.803037 51.518373 
" clip-path="url(#pd7089436de)" style="fill: none; stroke: #000000; stroke-width: 1.25; stroke-linecap: square"/>
   </g>
   <g id="line2d_3">
    <path d="M 64.389204 80.403753 
L 64.389204 60.533067 
" clip-path="url(#pd7089436de)" style="fill: none; stroke: #000000; stroke-width: 1.25; stroke-linecap: square"/>
   </g>
   <g id="PathCollection_1">
    <defs>
     <path id="m2bc03554ba" d="M 0 1.917571 
C 0.508546 1.917571 0.996331 1.715523 1.355927 1.355927 
C 1.715523 0.996331 1.917571 0.508546 1.917571 0 
C 1.917571 -0.508546 1.715523 -0.996331 1.355927 -1.355927 
C 0.996331 -1.715523 0.508546 -1.917571 0 -1.917571 
C -0.508546 -1.917571 -0.996331 -1.715523 -1.355927 -1.355927 
C -1.715523 -0.996331 -1.917571 -0.508546 -1.917571 0 
C -1.917571 0.508546 -1.715523 0.996331 -1.355927 1.355927 
C -0.996331 1.715523 -0.508546 1.917571 0 1.917571 
z
" style="stroke: #000000; stroke-width: 0.6"/>
    </defs>
    <g clip-path="url(#pd7089436de)">
     <use xlink:href="#m2bc03554ba" x="33.803037" y="63.498741" style="stroke: #000000; stroke-width: 0.6"/>
     <use xlink:href="#m2bc03554ba" x="64.389204" y="71.175705" style="stroke: #000000; stroke-width: 0.6"/>
    </g>
   </g>
   <g id="matplotlib.axis_1">
    <g id="xtick_1">
     <g id="line2d_4">
      <defs>
       <path id="m1e7156eb5a" d="M 0 0 
L 0 3 
" style="stroke: #000000; stroke-width: 0.5"/>
      </defs>
      <g>
       <use xlink:href="#m1e7156eb5a" x="39.920271" y="111.835582" style="stroke: #000000; stroke-width: 0.5"/>
      </g>
     </g>
     <g id="text_1">
      <g id="patch_3">
       <path d="M 29.394021 124.84277 
L 50.446521 124.84277 
L 50.446521 117.315582 
L 29.394021 117.315582 
z
" style="fill: #ffda03; opacity: 0.4"/>
      </g>
      <text style="font: 6px 'Arial', 'Helvetica', sans-serif; text-anchor: middle" x="39.920271" y="122.63027" transform="rotate(-0 39.920271 122.63027)">Late IA</text>
     </g>
    </g>
    <g id="xtick_2">
     <g id="line2d_5">
      <g>
       <use xlink:href="#m1e7156eb5a" x="70.506437" y="111.835582" style="stroke: #000000; stroke-width: 0.5"/>
      </g>
     </g>
     <g id="text_2">
      <g id="patch_4">
       <path d="M 57.650499 131.332332 
L 83.362374 131.332332 
L 83.362374 117.24527 
L 57.650499 117.24527 
z
" style="fill: #7e1e9c; opacity: 0.4"/>
      </g>
      <text style="font: 6px 'Arial', 'Helvetica', sans-serif" transform="translate(58.670499 122.703395)">Early RS</text>
      <text style="font: 6px 'Arial', 'Helvetica', sans-serif" transform="translate(59.838624 129.119832)"> Correct</text>
     </g>
    </g>
    <g id="text_3">
     <text style="font: 6px 'Arial', 'Helvetica', sans-serif; text-anchor: middle" x="55.213354" y="138.60702" transform="rotate(-0 55.213354 138.60702)">Cell Ensemble</text>
    </g>
   </g>
   <g id="matplotlib.axis_2">
    <g id="ytick_1">
     <g id="line2d_6">
      <defs>
       <path id="m7fb069bdb7" d="M 0 0 
L -3 0 
" style="stroke: #000000; stroke-width: 0.5"/>
      </defs>
      <g>
       <use xlink:href="#m7fb069bdb7" x="24.627188" y="111.835582" style="stroke: #000000; stroke-width: 0.5"/>
      </g>
     </g>
     <g id="text_4">
      <text style="font: 6px 'Arial', 'Helvetica', sans-serif; text-anchor: end" x="19.627188" y="113.982926" transform="rotate(-0 19.627188 113.982926)">0.0</text>
     </g>
    </g>
    <g id="ytick_2">
     <g id="line2d_7">
      <g>
       <use xlink:href="#m7fb069bdb7" x="24.627188" y="91.782107" style="stroke: #000000; stroke-width: 0.5"/>
      </g>
     </g>
     <g id="text_5">
      <text style="font: 6px 'Arial', 'Helvetica', sans-serif; text-anchor: end" x="19.627188" y="93.929451" transform="rotate(-0 19.627188 93.929451)">0.5</text>
     </g>
    </g>
    <g id="ytick_3">
     <g id="line2d_8">
      <g>
       <use xlink:href="#m7fb069bdb7" x="24.627188" y="71.728632" style="stroke: #000000; stroke-width: 0.5"/>
      </g>
     </g>
     <g id="text_6">
      <text style="font: 6px 'Arial', 'Helvetica', sans-serif; text-anchor: end" x="19.627188" y="73.875976" transform="rotate(-0 19.627188 73.875976)">1.0</text>
     </g>
    </g>
    <g id="ytick_4">
     <g id="line2d_9">
      <g>
       <use xlink:href="#m7fb069bdb7" x="24.627188" y="51.675157" style="stroke: #000000; stroke-width: 0.5"/>
      </g>
     </g>
     <g id="text_7">
      <text style="font: 6px 'Arial', 'Helvetica', sans-serif; text-anchor: end" x="19.627188" y="53.822501" transform="rotate(-0 19.627188 53.822501)">1.5</text>
     </g>
    </g>
    <g id="ytick_5">
     <g id="line2d_10">
      <g>
       <use xlink:href="#m7fb069bdb7" x="24.627188" y="31.621682" style="stroke: #000000; stroke-width: 0.5"/>
      </g>
     </g>
     <g id="text_8">
      <text style="font: 6px 'Arial', 'Helvetica', sans-serif; text-anchor: end" x="19.627188" y="33.769026" transform="rotate(-0 19.627188 33.769026)">2.0</text>
     </g>
    </g>
    <g id="text_9">
     <text style="font: 6px 'Arial', 'Helvetica', sans-serif; text-anchor: middle" x="6.094688" y="64.709916" transform="rotate(-90 6.094688 64.709916)">Davies-Bouldin Index</text>
    </g>
   </g>
   <g id="line2d_11"/>
   <g id="line2d_12">
    <path d="M 37.881193 74.171283 
L 37.881193 48.890358 
" clip-path="url(#pd7089436de)" style="fill: none; stroke: #ff0000; stroke-width: 1.25; stroke-linecap: square"/>
   </g>
   <g id="line2d_13">
    <path d="M 68.467359 74.884161 
L 68.467359 53.036379 
" clip-path="url(#pd7089436de)" style="fill: none; stroke: #ff0000; stroke-width: 1.25; stroke-linecap: square"/>
   </g>
   <g id="PathCollection_2">
    <defs>
     <path id="m5c920bc6b2" d="M 0 1.917571 
C 0.508546 1.917571 0.996331 1.715523 1.355927 1.355927 
C 1.715523 0.996331 1.917571 0.508546 1.917571 0 
C 1.917571 -0.508546 1.715523 -0.996331 1.355927 -1.355927 
C 0.996331 -1.715523 0.508546 -1.917571 0 -1.917571 
C -0.508546 -1.917571 -0.996331 -1.715523 -1.355927 -1.355927 
C -1.715523 -0.996331 -1.917571 -0.508546 -1.917571 0 
C -1.917571 0.508546 -1.715523 0.996331 -1.355927 1.355927 
C -0.996331 1.715523 -0.508546 1.917571 0 1.917571 
z
" style="stroke: #000000; stroke-width: 0.6"/>
    </defs>
    <g clip-path="url(#pd7089436de)">
     <use xlink:href="#m5c920bc6b2" x="37.881193" y="60.858069" style="fill: #ff0000; stroke: #000000; stroke-width: 0.6"/>
     <use xlink:href="#m5c920bc6b2" x="68.467359" y="64.870004" style="fill: #ff0000; stroke: #000000; stroke-width: 0.6"/>
    </g>
   </g>
   <g id="patch_5">
    <path d="M 24.627188 111.835582 
L 24.627188 17.58425 
" style="fill: none; stroke: #000000; stroke-width: 0.5; stroke-linejoin: miter; stroke-linecap: square"/>
   </g>
   <g id="patch_6">
    <path d="M 24.627188 111.835582 
L 85.79952 111.835582 
" style="fill: none; stroke: #000000; stroke-width: 0.5; stroke-linejoin: miter; stroke-linecap: square"/>
   </g>
   <g id="line2d_14"/>
   <g id="line2d_15">
    <path d="M 41.959348 80.475841 
L 41.959348 63.16294 
" clip-path="url(#pd7089436de)" style="fill: none; stroke: #1e90ff; stroke-width: 1.25; stroke-linecap: square"/>
   </g>
   <g id="line2d_16">
    <path d="M 72.545515 79.456544 
L 72.545515 60.969744 
" clip-path="url(#pd7089436de)" style="fill: none; stroke: #1e90ff; stroke-width: 1.25; stroke-linecap: square"/>
   </g>
   <g id="PathCollection_3">
    <defs>
     <path id="m9dc55cb732" d="M 0 1.917571 
C 0.508546 1.917571 0.996331 1.715523 1.355927 1.355927 
C 1.715523 0.996331 1.917571 0.508546 1.917571 0 
C 1.917571 -0.508546 1.715523 -0.996331 1.355927 -1.355927 
C 0.996331 -1.715523 0.508546 -1.917571 0 -1.917571 
C -0.508546 -1.917571 -0.996331 -1.715523 -1.355927 -1.355927 
C -1.715523 -0.996331 -1.917571 -0.508546 -1.917571 0 
C -1.917571 0.508546 -1.715523 0.996331 -1.355927 1.355927 
C -0.996331 1.715523 -0.508546 1.917571 0 1.917571 
z
" style="stroke: #000000; stroke-width: 0.6"/>
    </defs>
    <g clip-path="url(#pd7089436de)">
     <use xlink:href="#m9dc55cb732" x="41.959348" y="71.939189" style="fill: #1e90ff; stroke: #000000; stroke-width: 0.6"/>
     <use xlink:href="#m9dc55cb732" x="72.545515" y="70.805522" style="fill: #1e90ff; stroke: #000000; stroke-width: 0.6"/>
    </g>
   </g>
   <g id="text_10">
    <text style="font: 6px 'Arial', 'Helvetica', sans-serif" transform="translate(19.700385 6.167812)">Late IA &amp; Early RS Correct</text>
    <text style="font: 6px 'Arial', 'Helvetica', sans-serif" transform="translate(22.197885 12.58425)"> stage activity separation</text>
   </g>
   <g id="line2d_17"/>
   <g id="line2d_18">
    <path d="M 46.037504 77.933934 
L 46.037504 55.886413 
" clip-path="url(#pd7089436de)" style="fill: none; stroke: #32cd32; stroke-width: 1.25; stroke-linecap: square"/>
   </g>
   <g id="line2d_19">
    <path d="M 76.62367 80.877307 
L 76.62367 62.287007 
" clip-path="url(#pd7089436de)" style="fill: none; stroke: #32cd32; stroke-width: 1.25; stroke-linecap: square"/>
   </g>
   <g id="PathCollection_4">
    <defs>
     <path id="m6ac9e43123" d="M 0 1.917571 
C 0.508546 1.917571 0.996331 1.715523 1.355927 1.355927 
C 1.715523 0.996331 1.917571 0.508546 1.917571 0 
C 1.917571 -0.508546 1.715523 -0.996331 1.355927 -1.355927 
C 0.996331 -1.715523 0.508546 -1.917571 0 -1.917571 
C -0.508546 -1.917571 -0.996331 -1.715523 -1.355927 -1.355927 
C -1.715523 -0.996331 -1.917571 -0.508546 -1.917571 0 
C -1.917571 0.508546 -1.715523 0.996331 -1.355927 1.355927 
C -0.996331 1.715523 -0.508546 1.917571 0 1.917571 
z
" style="stroke: #000000; stroke-width: 0.6"/>
    </defs>
    <g clip-path="url(#pd7089436de)">
     <use xlink:href="#m6ac9e43123" x="46.037504" y="66.407186" style="fill: #32cd32; stroke: #000000; stroke-width: 0.6"/>
     <use xlink:href="#m6ac9e43123" x="76.62367" y="72.441979" style="fill: #32cd32; stroke: #000000; stroke-width: 0.6"/>
    </g>
   </g>
  </g>
 </g>
 <defs>
  <clipPath id="pd7089436de">
   <rect x="24.627188" y="17.58425" width="61.172332" height="94.251332"/>
  </clipPath>
 </defs>
</svg>
