<?xml version="1.0" encoding="utf-8" standalone="no"?>
<!DOCTYPE svg PUBLIC "-//W3C//DTD SVG 1.1//EN"
  "http://www.w3.org/Graphics/SVG/1.1/DTD/svg11.dtd">
<svg xmlns:xlink="http://www.w3.org/1999/xlink" width="103.508515pt" height="141.59952pt" viewBox="0 0 103.508515 141.59952" xmlns="http://www.w3.org/2000/svg" version="1.1">
 <metadata>
  <rdf:RDF xmlns:dc="http://purl.org/dc/elements/1.1/" xmlns:cc="http://creativecommons.org/ns#" xmlns:rdf="http://www.w3.org/1999/02/22-rdf-syntax-ns#">
   <cc:Work>
    <dc:type rdf:resource="http://purl.org/dc/dcmitype/StillImage"/>
    <dc:date>2025-06-25T09:53:36.079764</dc:date>
    <dc:format>image/svg+xml</dc:format>
    <dc:creator>
     <cc:Agent>
      <dc:title>Matplotlib v3.7.0, https://matplotlib.org/</dc:title>
     </cc:Agent>
    </dc:creator>
   </cc:Work>
  </rdf:RDF>
 </metadata>
 <defs>
  <style type="text/css">*{stroke-linejoin: round; stroke-linecap: butt}</style>
 </defs>
 <g id="figure_1">
  <g id="patch_1">
   <path d="M 0 141.59952 
L 103.508515 141.59952 
L 103.508515 0 
L 0 0 
z
" style="fill: #ffffff"/>
  </g>
  <g id="axes_1">
   <g id="patch_2">
    <path d="M 24.627188 111.835583 
L 84.435155 111.835583 
L 84.435155 17.58425 
L 24.627188 17.58425 
z
" style="fill: #ffffff"/>
   </g>
   <g id="line2d_1"/>
   <g id="line2d_2">
    <path d="M 27.345731 90.456532 
L 27.345731 76.669631 
" clip-path="url(#paa546528b4)" style="fill: none; stroke: #000000; stroke-width: 1.25; stroke-linecap: square"/>
   </g>
   <g id="line2d_3">
    <path d="M 66.182074 81.80329 
L 66.182074 63.959876 
" clip-path="url(#paa546528b4)" style="fill: none; stroke: #000000; stroke-width: 1.25; stroke-linecap: square"/>
   </g>
   <g id="PathCollection_1">
    <defs>
     <path id="m7104855353" d="M 0 1.917571 
C 0.508546 1.917571 0.996331 1.715523 1.355927 1.355927 
C 1.715523 0.996331 1.917571 0.508546 1.917571 0 
C 1.917571 -0.508546 1.715523 -0.996331 1.355927 -1.355927 
C 0.996331 -1.715523 0.508546 -1.917571 0 -1.917571 
C -0.508546 -1.917571 -0.996331 -1.715523 -1.355927 -1.355927 
C -1.715523 -0.996331 -1.917571 -0.508546 -1.917571 0 
C -1.917571 0.508546 -1.715523 0.996331 -1.355927 1.355927 
C -0.996331 1.715523 -0.508546 1.917571 0 1.917571 
z
" style="stroke: #000000; stroke-width: 0.6"/>
    </defs>
    <g clip-path="url(#paa546528b4)">
     <use xlink:href="#m7104855353" x="27.345731" y="83.858795" style="stroke: #000000; stroke-width: 0.6"/>
     <use xlink:href="#m7104855353" x="66.182074" y="73.396575" style="stroke: #000000; stroke-width: 0.6"/>
    </g>
   </g>
   <g id="matplotlib.axis_1">
    <g id="xtick_1">
     <g id="line2d_4">
      <defs>
       <path id="m5ec0dbbe0f" d="M 0 0 
L 0 3 
" style="stroke: #000000; stroke-width: 0.5"/>
      </defs>
      <g>
       <use xlink:href="#m5ec0dbbe0f" x="35.113" y="111.835583" style="stroke: #000000; stroke-width: 0.5"/>
      </g>
     </g>
     <g id="text_1">
      <g id="patch_3">
       <path d="M 23.425187 131.259208 
L 46.800812 131.259208 
L 46.800812 117.24527 
L 23.425187 117.24527 
z
" style="fill: #ff5b00; opacity: 0.4"/>
      </g>
      <text style="font: 6px 'Arial', 'Helvetica', sans-serif" transform="translate(24.610187 122.63027)">Early IA</text>
      <text style="font: 6px 'Arial', 'Helvetica', sans-serif" transform="translate(24.445187 129.046708)"> Correct</text>
     </g>
    </g>
    <g id="xtick_2">
     <g id="line2d_5">
      <g>
       <use xlink:href="#m5ec0dbbe0f" x="73.949342" y="111.835583" style="stroke: #000000; stroke-width: 0.5"/>
      </g>
     </g>
     <g id="text_2">
      <g id="patch_4">
       <path d="M 61.093405 131.332333 
L 86.80528 131.332333 
L 86.80528 117.24527 
L 61.093405 117.24527 
z
" style="fill: #7e1e9c; opacity: 0.4"/>
      </g>
      <text style="font: 6px 'Arial', 'Helvetica', sans-serif" transform="translate(62.113405 122.703395)">Early RS</text>
      <text style="font: 6px 'Arial', 'Helvetica', sans-serif" transform="translate(63.28153 129.119833)"> Correct</text>
     </g>
    </g>
    <g id="text_3">
     <text style="font: 6px 'Arial', 'Helvetica', sans-serif; text-anchor: middle" x="54.531171" y="138.60702" transform="rotate(-0 54.531171 138.60702)">Cell Ensemble</text>
    </g>
   </g>
   <g id="matplotlib.axis_2">
    <g id="ytick_1">
     <g id="line2d_6">
      <defs>
       <path id="mbe66e59812" d="M 0 0 
L -3 0 
" style="stroke: #000000; stroke-width: 0.5"/>
      </defs>
      <g>
       <use xlink:href="#mbe66e59812" x="24.627188" y="111.835583" style="stroke: #000000; stroke-width: 0.5"/>
      </g>
     </g>
     <g id="text_4">
      <text style="font: 6px 'Arial', 'Helvetica', sans-serif; text-anchor: end" x="19.627188" y="113.982926" transform="rotate(-0 19.627188 113.982926)">0.0</text>
     </g>
    </g>
    <g id="ytick_2">
     <g id="line2d_7">
      <g>
       <use xlink:href="#mbe66e59812" x="24.627188" y="91.782108" style="stroke: #000000; stroke-width: 0.5"/>
      </g>
     </g>
     <g id="text_5">
      <text style="font: 6px 'Arial', 'Helvetica', sans-serif; text-anchor: end" x="19.627188" y="93.929451" transform="rotate(-0 19.627188 93.929451)">0.5</text>
     </g>
    </g>
    <g id="ytick_3">
     <g id="line2d_8">
      <g>
       <use xlink:href="#mbe66e59812" x="24.627188" y="71.728633" style="stroke: #000000; stroke-width: 0.5"/>
      </g>
     </g>
     <g id="text_6">
      <text style="font: 6px 'Arial', 'Helvetica', sans-serif; text-anchor: end" x="19.627188" y="73.875976" transform="rotate(-0 19.627188 73.875976)">1.0</text>
     </g>
    </g>
    <g id="ytick_4">
     <g id="line2d_9">
      <g>
       <use xlink:href="#mbe66e59812" x="24.627188" y="51.675157" style="stroke: #000000; stroke-width: 0.5"/>
      </g>
     </g>
     <g id="text_7">
      <text style="font: 6px 'Arial', 'Helvetica', sans-serif; text-anchor: end" x="19.627188" y="53.822501" transform="rotate(-0 19.627188 53.822501)">1.5</text>
     </g>
    </g>
    <g id="ytick_5">
     <g id="line2d_10">
      <g>
       <use xlink:href="#mbe66e59812" x="24.627188" y="31.621682" style="stroke: #000000; stroke-width: 0.5"/>
      </g>
     </g>
     <g id="text_8">
      <text style="font: 6px 'Arial', 'Helvetica', sans-serif; text-anchor: end" x="19.627188" y="33.769026" transform="rotate(-0 19.627188 33.769026)">2.0</text>
     </g>
    </g>
    <g id="text_9">
     <text style="font: 6px 'Arial', 'Helvetica', sans-serif; text-anchor: middle" x="6.094688" y="64.709916" transform="rotate(-90 6.094688 64.709916)">Davies-Bouldin Index</text>
    </g>
   </g>
   <g id="line2d_11"/>
   <g id="line2d_12">
    <path d="M 32.52391 86.112626 
L 32.52391 70.198887 
" clip-path="url(#paa546528b4)" style="fill: none; stroke: #ff0000; stroke-width: 1.25; stroke-linecap: square"/>
   </g>
   <g id="line2d_13">
    <path d="M 71.360253 65.859047 
L 71.360253 39.246235 
" clip-path="url(#paa546528b4)" style="fill: none; stroke: #ff0000; stroke-width: 1.25; stroke-linecap: square"/>
   </g>
   <g id="PathCollection_2">
    <defs>
     <path id="mb56af79c68" d="M 0 1.917571 
C 0.508546 1.917571 0.996331 1.715523 1.355927 1.355927 
C 1.715523 0.996331 1.917571 0.508546 1.917571 0 
C 1.917571 -0.508546 1.715523 -0.996331 1.355927 -1.355927 
C 0.996331 -1.715523 0.508546 -1.917571 0 -1.917571 
C -0.508546 -1.917571 -0.996331 -1.715523 -1.355927 -1.355927 
C -1.715523 -0.996331 -1.917571 -0.508546 -1.917571 0 
C -1.917571 0.508546 -1.715523 0.996331 -1.355927 1.355927 
C -0.996331 1.715523 -0.508546 1.917571 0 1.917571 
z
" style="stroke: #000000; stroke-width: 0.6"/>
    </defs>
    <g clip-path="url(#paa546528b4)">
     <use xlink:href="#mb56af79c68" x="32.52391" y="78.681396" style="fill: #ff0000; stroke: #000000; stroke-width: 0.6"/>
     <use xlink:href="#mb56af79c68" x="71.360253" y="52.292535" style="fill: #ff0000; stroke: #000000; stroke-width: 0.6"/>
    </g>
   </g>
   <g id="line2d_14">
    <path d="M 32.52391 68.313861 
L 32.52391 68.313861 
L 42.880268 68.313861 
L 42.880268 68.313861 
" style="fill: none; stroke: #000000; stroke-width: 0.75; stroke-linecap: square"/>
   </g>
   <g id="line2d_15">
    <path d="M 66.182074 37.361208 
L 66.182074 37.361208 
L 71.360253 37.361208 
L 71.360253 37.361208 
" style="fill: none; stroke: #000000; stroke-width: 0.75; stroke-linecap: square"/>
   </g>
   <g id="line2d_16">
    <path d="M 71.360253 31.80382 
L 71.360253 31.80382 
L 76.538432 31.80382 
L 76.538432 31.80382 
" style="fill: none; stroke: #000000; stroke-width: 0.75; stroke-linecap: square"/>
   </g>
   <g id="line2d_17">
    <path d="M 71.360253 26.246433 
L 71.360253 26.246433 
L 81.716611 26.246433 
L 81.716611 26.246433 
" style="fill: none; stroke: #000000; stroke-width: 0.75; stroke-linecap: square"/>
   </g>
   <g id="patch_5">
    <path d="M 24.627188 111.835583 
L 24.627188 17.58425 
" style="fill: none; stroke: #000000; stroke-width: 0.5; stroke-linejoin: miter; stroke-linecap: square"/>
   </g>
   <g id="patch_6">
    <path d="M 24.627188 111.835583 
L 84.435155 111.835583 
" style="fill: none; stroke: #000000; stroke-width: 0.5; stroke-linejoin: miter; stroke-linecap: square"/>
   </g>
   <g id="line2d_18"/>
   <g id="line2d_19">
    <path d="M 37.702089 91.547851 
L 37.702089 78.549228 
" clip-path="url(#paa546528b4)" style="fill: none; stroke: #1e90ff; stroke-width: 1.25; stroke-linecap: square"/>
   </g>
   <g id="line2d_20">
    <path d="M 76.538432 79.881526 
L 76.538432 62.024764 
" clip-path="url(#paa546528b4)" style="fill: none; stroke: #1e90ff; stroke-width: 1.25; stroke-linecap: square"/>
   </g>
   <g id="PathCollection_3">
    <defs>
     <path id="m2b00bdbe89" d="M 0 1.917571 
C 0.508546 1.917571 0.996331 1.715523 1.355927 1.355927 
C 1.715523 0.996331 1.917571 0.508546 1.917571 0 
C 1.917571 -0.508546 1.715523 -0.996331 1.355927 -1.355927 
C 0.996331 -1.715523 0.508546 -1.917571 0 -1.917571 
C -0.508546 -1.917571 -0.996331 -1.715523 -1.355927 -1.355927 
C -1.715523 -0.996331 -1.917571 -0.508546 -1.917571 0 
C -1.917571 0.508546 -1.715523 0.996331 -1.355927 1.355927 
C -0.996331 1.715523 -0.508546 1.917571 0 1.917571 
z
" style="stroke: #000000; stroke-width: 0.6"/>
    </defs>
    <g clip-path="url(#paa546528b4)">
     <use xlink:href="#m2b00bdbe89" x="37.702089" y="85.258095" style="fill: #1e90ff; stroke: #000000; stroke-width: 0.6"/>
     <use xlink:href="#m2b00bdbe89" x="76.538432" y="71.270883" style="fill: #1e90ff; stroke: #000000; stroke-width: 0.6"/>
    </g>
   </g>
   <g id="text_10">
    <g id="patch_7">
     <path d="M 35.745214 72.224472 
L 39.658964 72.224472 
L 39.658964 64.108222 
L 35.745214 64.108222 
L 35.745214 72.224472 
z
" style="fill: none"/>
    </g>
    <text style="font: 8px 'Arial', 'Helvetica', sans-serif; text-anchor: middle" x="37.702089" y="70.234472" transform="rotate(-0 37.702089 70.234472)">*</text>
   </g>
   <g id="text_11">
    <g id="patch_8">
     <path d="M 63.700538 41.27182 
L 73.841788 41.27182 
L 73.841788 33.15557 
L 63.700538 33.15557 
L 63.700538 41.27182 
z
" style="fill: none"/>
    </g>
    <text style="font: 8px 'Arial', 'Helvetica', sans-serif; text-anchor: middle" x="68.771163" y="39.28182" transform="rotate(-0 68.771163 39.28182)">***</text>
   </g>
   <g id="text_12">
    <g id="patch_9">
     <path d="M 70.435592 35.714432 
L 77.463092 35.714432 
L 77.463092 27.598182 
L 70.435592 27.598182 
L 70.435592 35.714432 
z
" style="fill: none"/>
    </g>
    <text style="font: 8px 'Arial', 'Helvetica', sans-serif; text-anchor: middle" x="73.949342" y="33.724432" transform="rotate(-0 73.949342 33.724432)">**</text>
   </g>
   <g id="text_13">
    <g id="patch_10">
     <path d="M 71.467807 30.157044 
L 81.609057 30.157044 
L 81.609057 22.040794 
L 71.467807 22.040794 
L 71.467807 30.157044 
z
" style="fill: none"/>
    </g>
    <text style="font: 8px 'Arial', 'Helvetica', sans-serif; text-anchor: middle" x="76.538432" y="28.167044" transform="rotate(-0 76.538432 28.167044)">***</text>
   </g>
   <g id="text_14">
    <text style="font: 6px 'Arial', 'Helvetica', sans-serif" transform="translate(7.353827 6.167812)">Early IA Correct &amp; Early RS Correct</text>
    <text style="font: 6px 'Arial', 'Helvetica', sans-serif" transform="translate(21.515702 12.58425)"> stage activity separation</text>
   </g>
   <g id="line2d_21"/>
   <g id="line2d_22">
    <path d="M 42.880268 92.872541 
L 42.880268 79.740852 
" clip-path="url(#paa546528b4)" style="fill: none; stroke: #32cd32; stroke-width: 1.25; stroke-linecap: square"/>
   </g>
   <g id="line2d_23">
    <path d="M 81.716611 83.300862 
L 81.716611 66.506337 
" clip-path="url(#paa546528b4)" style="fill: none; stroke: #32cd32; stroke-width: 1.25; stroke-linecap: square"/>
   </g>
   <g id="PathCollection_4">
    <defs>
     <path id="m24ec8e482c" d="M 0 1.917571 
C 0.508546 1.917571 0.996331 1.715523 1.355927 1.355927 
C 1.715523 0.996331 1.917571 0.508546 1.917571 0 
C 1.917571 -0.508546 1.715523 -0.996331 1.355927 -1.355927 
C 0.996331 -1.715523 0.508546 -1.917571 0 -1.917571 
C -0.508546 -1.917571 -0.996331 -1.715523 -1.355927 -1.355927 
C -1.715523 -0.996331 -1.917571 -0.508546 -1.917571 0 
C -1.917571 0.508546 -1.715523 0.996331 -1.355927 1.355927 
C -0.996331 1.715523 -0.508546 1.917571 0 1.917571 
z
" style="stroke: #000000; stroke-width: 0.6"/>
    </defs>
    <g clip-path="url(#paa546528b4)">
     <use xlink:href="#m24ec8e482c" x="42.880268" y="86.712487" style="fill: #32cd32; stroke: #000000; stroke-width: 0.6"/>
     <use xlink:href="#m24ec8e482c" x="81.716611" y="75.629403" style="fill: #32cd32; stroke: #000000; stroke-width: 0.6"/>
    </g>
   </g>
  </g>
 </g>
 <defs>
  <clipPath id="paa546528b4">
   <rect x="24.627188" y="17.58425" width="59.807967" height="94.251333"/>
  </clipPath>
 </defs>
</svg>
